<svg width="90" height="90" viewBox="0 0 90 90" fill="none" xmlns="http://www.w3.org/2000/svg">
<path d="M1.5 0H88.5V7.50006C88.5 11.6416 85.1415 15.0001 80.9999 15.0001H9.00006C4.85848 15.0001 1.5 11.6416 1.5 7.50006V0Z" fill="#FBBB36"/>
<path d="M28.5 14.9999H10.5V28.4999H28.5V14.9999Z" fill="#FBBB36"/>
<path d="M28.5 14.9999H10.5V19.4999H28.5V14.9999Z" fill="#FBBB36"/>
<path d="M79.5 14.9999H61.5V28.4999H79.5V14.9999Z" fill="#FBBB36"/>
<path d="M79.5 14.9999H61.5V19.4999H79.5V14.9999Z" fill="#FBBB36"/>
<path d="M11.2499 9C13.321 9 14.9999 7.3211 14.9999 5.25006C14.9999 3.17903 13.321 1.50012 11.2499 1.50012C9.17891 1.50012 7.5 3.17903 7.5 5.25006C7.5 7.3211 9.17891 9 11.2499 9Z" fill="#FBBB36"/>
<path d="M78.7499 9C80.821 9 82.4999 7.3211 82.4999 5.25006C82.4999 3.17903 80.821 1.50012 78.7499 1.50012C76.6789 1.50012 75 3.17903 75 5.25006C75 7.3211 76.6789 9 78.7499 9Z" fill="#FBBB36"/>
<path d="M69 1.5H21V9.00006H69V1.5Z" fill="#E6E6E6"/>
<path d="M69 1.5H21V5.24994H69V1.5Z" fill="#E6E6E6"/>
<path d="M16.5001 34.5001H4.5V52.5001H16.5001V34.5001Z" fill="#E6E6E6"/>
<path d="M16.5001 64.5H4.5V82.5H16.5001V64.5Z" fill="#E6E6E6"/>
<path d="M13.4999 52.5H7.5V64.5001H13.4999V52.5Z" fill="#E6E6E6"/>
<path d="M85.5 34.5001H73.5V52.5001H85.5V34.5001Z" fill="#E6E6E6"/>
<path d="M85.5 64.5H73.5V82.5H85.5V64.5Z" fill="#E6E6E6"/>
<path d="M82.4999 52.5H76.5V64.5001H82.4999V52.5Z" fill="#E6E6E6"/>
<path d="M88.5 28.4999H1.5V34.4998H88.5V28.4999Z" fill="#FBBB36"/>
<path d="M88.5 82.4999H1.5V88.4998H88.5V82.4999Z" fill="#FBBB36"/>
<path d="M16.5001 5.25006C16.5001 2.35055 14.1496 0 11.2501 0C8.35055 0 6 2.35055 6 5.25006C6 8.14957 8.35055 10.4999 11.2501 10.4999C14.1496 10.4999 16.5001 8.14957 16.5001 5.25006ZM9.00006 5.25006C9.00006 4.00799 10.008 3.00006 11.2501 3.00006C12.4921 3.00006 13.5001 4.00799 13.5001 5.25006C13.5001 6.49213 12.4921 7.50006 11.2501 7.50006C10.008 7.50006 9.00006 6.49195 9.00006 5.25006Z" fill="#030303"/>
<path d="M84.0001 5.25006C84.0001 2.35055 81.6496 0 78.7501 0C75.8505 0 73.5 2.35055 73.5 5.25006C73.5 8.14957 75.8505 10.4999 78.7501 10.4999C81.6496 10.4999 84.0001 8.14957 84.0001 5.25006ZM76.5001 5.25006C76.5001 4.00799 77.508 3.00006 78.7501 3.00006C79.9921 3.00006 81 4.00799 81 5.25006C81 6.49213 79.9921 7.50006 78.7501 7.50006C77.508 7.50006 76.5001 6.49195 76.5001 5.25006Z" fill="#030303"/>
<path d="M12.0001 75H9V78.0001H12.0001V75Z" fill="black"/>
<path d="M12.0001 69H9V72.0001H12.0001V69Z" fill="black"/>
<path d="M12.0001 45H9V48.0001H12.0001V45Z" fill="black"/>
<path d="M12.0001 39.0001H9V42.0002H12.0001V39.0001Z" fill="black"/>
<path d="M81.0001 75H78V78.0001H81.0001V75Z" fill="black"/>
<path d="M81.0001 69H78V72.0001H81.0001V69Z" fill="black"/>
<path d="M81.0001 45H78V48.0001H81.0001V45Z" fill="black"/>
<path d="M81.0001 39.0001H78V42.0002H81.0001V39.0001Z" fill="black"/>
<path d="M86.9999 7.50006C86.9999 10.8135 84.3135 13.5 81 13.5H9C5.68652 13.5 3.00006 10.8135 3.00006 7.50006V0H0V7.50006C0.00457031 12.468 4.03207 16.4955 9 16.5001V27H1.49994C0.672012 27 0 27.672 0 28.4999V34.4999C0 35.3278 0.672012 35.9998 1.49994 35.9998H2.99988V52.4999C2.99988 53.3278 3.67189 53.9998 4.49982 53.9998H5.99977V62.9998H4.5C3.67207 62.9998 3.00006 63.6718 3.00006 64.4998V81H1.49994C0.672012 81 0 81.672 0 82.4999V88.4999C0 89.328 0.672012 90 1.49994 90H88.4999C89.3278 90 89.9998 89.328 89.9998 88.5001V82.5001C89.9998 81.6722 89.3278 81.0002 88.4999 81.0002H86.9999V64.5001C86.9999 63.6722 86.3279 63.0002 85.5 63.0002H84.0001V54.0002H85.5C86.3279 54.0002 86.9999 53.3282 86.9999 52.5002V36H88.4999C89.3278 36 89.9998 35.328 89.9998 34.5001V28.5001C89.9998 27.6722 89.3278 27.0002 88.4999 27.0002H81V16.5001C85.9679 16.4955 89.9954 12.468 90 7.50006V0H86.9999V7.50006ZM30.0001 27V16.5001H60.0001V27H30.0001ZM12.0001 16.5001H15.0001V24.0001H18V16.5001H21.0001V21.0001H24.0001V16.5001H27V27H12.0001V16.5001ZM72 36V38.073L45 51.573L18 38.073V36H72ZM73.4999 63C72.672 63 72 63.672 72 64.4999V65.073L57.3541 57.7499L72 50.4269V52.4999C72 53.3278 72.672 53.9998 73.4999 53.9998H74.9999V62.9998H73.4999V63ZM18 81V77.4271L45 63.9271L72 77.4271V81H18ZM16.5001 54C17.328 54 18 53.328 18 52.5001V50.4271L32.6459 57.7501L18 65.0732V64.5001C18 63.6722 17.328 63.0002 16.5001 63.0002H15.0001V54.0002H16.5001V54ZM72 47.073L54 56.073L48.3541 53.2499L72.0002 41.4269V47.073H72ZM50.6459 57.7499L45 60.573L39.3541 57.7499L45 54.9271L50.6459 57.7499ZM72 74.073L48.3539 62.2499L53.9998 59.4269L71.9998 68.4269V74.073H72ZM18 68.4271L36 59.4271L41.6459 62.2501L18 74.073V68.4271ZM36 56.073L18 47.073V41.4271L41.6459 53.2501L36 56.073ZM14.9999 50.9999H5.99994V36H14.9999V50.9999ZM9 54H12.0001V63H9V54ZM5.99994 66.0001H14.9999V81H5.99994V66.0001ZM86.9999 86.9999H3.00006V83.9999H87.0001V86.9999H86.9999ZM75.0001 81V66.0001H84.0001V81H75.0001ZM81 63H77.9999V54H81V63ZM84.0001 50.9999H75.0001V36H84.0001V50.9999ZM86.9999 32.9999H3.00006V29.9999H87.0001V32.9999H86.9999ZM77.9999 27H63V16.5001H66.0001V21.0001H69.0001V16.5001H72V24.0001H75.0001V16.5001H78.0001V27H77.9999Z" fill="black"/>
<path d="M68.9998 10.4999C69.8278 10.4999 70.4998 9.82793 70.4998 9V1.49994C70.4998 0.672012 69.8278 0 68.9998 0H20.9999C20.172 0 19.5 0.672012 19.5 1.49994V9C19.5 9.82793 20.172 10.4999 20.9999 10.4999H68.9998ZM22.4999 3.00006H67.4999V7.50006H22.4999V3.00006Z" fill="#030303"/>
</svg>
