<svg width="90" height="90" viewBox="0 0 90 90" fill="none" xmlns="http://www.w3.org/2000/svg">
<g clip-path="url(#clip0)">
<path d="M7.49994 1.5H82.5C85.8135 1.5 88.4999 4.18646 88.4999 7.49994V61.4999C88.4999 64.8134 85.8135 67.4999 82.5 67.4999H7.49994C4.18646 67.4999 1.5 64.8134 1.5 61.4999V7.49994C1.49982 4.18664 4.18646 1.5 7.49994 1.5Z" fill="#E6E6E6"/>
<path d="M49.5 44.9999H59.9999V32.9999H52.5001L48.0001 25.5H30.0001L23.9999 32.9999L9 34.5V44.9999H19.4999H49.5Z" fill="#FBBB36"/>
<path d="M72 82.5H18V88.4999H72V82.5Z" fill="#FBBB36"/>
<path d="M1.5 61.5001C1.5 64.8136 4.18647 67.5 7.49994 67.5H82.5C85.8135 67.5 88.5 64.8136 88.5 61.5001V55.5001H1.5V61.5001Z" fill="#FBBB36"/>
<path d="M33 67.5L24 82.4999H66.0001L57.0001 67.5H33Z" fill="#FBBB36"/>
<path d="M46.5001 48.0001C48.1569 48.0001 49.5001 46.657 49.5001 45.0001C49.5001 43.3432 48.1569 42 46.5001 42C44.8432 42 43.5 43.3432 43.5 45.0001C43.5 46.657 44.8432 48.0001 46.5001 48.0001Z" fill="#E6E6E6"/>
<path d="M22.5001 48.0001C24.157 48.0001 25.5001 46.657 25.5001 45.0001C25.5001 43.3432 24.157 42 22.5001 42C20.8432 42 19.5 43.3432 19.5 45.0001C19.5 46.657 20.8432 48.0001 22.5001 48.0001Z" fill="#E6E6E6"/>
<path d="M82.4999 0H7.50006C3.36006 0.00457031 0.00457031 3.36006 0 7.50006V61.5001C0.00457031 65.6401 3.36006 68.9955 7.50006 69.0001H30.3511L23.1511 81.0002H18C17.1721 81.0002 16.5001 81.6722 16.5001 82.5001V88.5001C16.5001 89.328 17.1721 90 18 90H72C72.8279 90 73.4999 89.328 73.4999 88.5001V82.5001C73.4999 81.6722 72.8279 81.0002 72 81.0002H66.8491L59.6491 69.0001H82.5001C86.6401 68.9955 89.9956 65.6401 90.0002 61.5001V7.50006C89.9954 3.36006 86.6399 0.00457031 82.4999 0ZM7.50006 3.00006H82.5001C84.9857 3.00006 87.0001 5.01451 87.0001 7.50006V54H3.00006V7.50006C3.00006 5.01451 5.01451 3.00006 7.50006 3.00006ZM70.5001 86.9999H19.4999V83.9999H70.4999V86.9999H70.5001ZM63.351 81H26.649L33.849 68.9999H56.151L63.351 81ZM82.4999 66.0001H7.50006C5.01451 66.0001 3.00006 63.9856 3.00006 61.5001V57.0001H87.0001V61.5001C86.9999 63.9854 84.9855 66.0001 82.4999 66.0001Z" fill="black"/>
<path d="M46.5001 60H43.5V63.0001H46.5001V60Z" fill="#004559"/>
<path d="M8.99994 46.5H18.2759C19.0889 48.8324 21.639 50.0655 23.9714 49.2525C25.2615 48.8041 26.274 47.7901 26.724 46.5H42.276C43.089 48.8324 45.6391 50.0655 47.9715 49.2525C49.2616 48.8041 50.2741 47.7901 50.7241 46.5H60.0001C60.828 46.5 61.5 45.828 61.5 45.0001V33C61.5 32.1721 60.828 31.5001 60.0001 31.5001H53.349L49.2855 24.7276C49.0139 24.276 48.5265 24 48 24H30C29.544 24 29.1135 24.2071 28.8284 24.5625L23.2229 31.5705L8.85 33.0076C8.08342 33.084 7.5 33.7291 7.5 34.5001V45.0001C7.5 45.828 8.17201 46.5 8.99994 46.5ZM22.4999 46.5C21.672 46.5 21 45.828 21 45.0001C21 44.1721 21.672 43.5001 22.4999 43.5001C23.3279 43.5001 23.9999 44.1721 23.9999 45.0001C23.9999 45.828 23.3279 46.5 22.4999 46.5ZM46.4999 46.5C45.672 46.5 44.9999 45.828 44.9999 45.0001C44.9999 44.1721 45.672 43.5001 46.4999 43.5001C47.3278 43.5001 47.9998 44.1721 47.9998 45.0001C48 45.828 47.328 46.5 46.4999 46.5ZM24.15 34.5001C24.552 34.4597 24.9196 34.2602 25.1715 33.9452L30.72 27.0002H47.151L51.2145 33.7727C51.4861 34.2243 51.9735 34.5003 52.5 34.5003H58.4999V37.5003H55.4999V40.5001H58.4999V43.5001H50.7239C49.9109 41.1677 47.3609 39.9346 45.0284 40.7476C43.7384 41.196 42.7259 42.2101 42.2759 43.5001H26.724C25.911 41.1677 23.3609 39.9346 21.0285 40.7476C19.7384 41.196 18.7259 42.2101 18.2759 43.5001H10.4999V40.5001H13.4999V37.5H10.4999V35.8575L24.15 34.5001Z" fill="black"/>
<path d="M34.5 16.5001H31.4999V13.5001H28.4999V16.5001H25.5V10.5H22.4999V16.5001H19.4999V7.50012H16.5V16.5001H13.4999V12.0001H10.4999V16.5001H7.5V19.5H34.5V16.5001Z" fill="black"/>
<path d="M82.4999 31.5H67.5V34.5001H82.4999V31.5Z" fill="black"/>
<path d="M82.4999 37.4999H67.5V40.4999H82.4999V37.4999Z" fill="black"/>
<path d="M82.4999 43.5H67.5V46.5001H82.4999V43.5Z" fill="black"/>
<path d="M53.2019 10.5H61.4998V7.50012H52.4998C52.0544 7.50012 51.6328 7.69665 51.3477 8.03854L43.8477 17.0385L46.1516 18.9616L53.2019 10.5Z" fill="black"/>
<path d="M70.5001 7.50012H67.5V10.5002H70.5001V7.50012Z" fill="black"/>
<path d="M76.5001 7.50012H73.5V10.5002H76.5001V7.50012Z" fill="black"/>
<path d="M82.4999 13.5H67.5V16.5001H82.4999V13.5Z" fill="black"/>
<path d="M82.4999 19.5H67.5V22.5001H82.4999V19.5Z" fill="black"/>
</g>
<defs>
<clipPath id="clip0">
<rect width="90" height="90" fill="white"/>
</clipPath>
</defs>
</svg>
