<svg width="90" height="90" viewBox="0 0 90 90" fill="none" xmlns="http://www.w3.org/2000/svg">
<path d="M88.5 75.7499H1.5V83.25H88.5V75.7499Z" fill="#E6E6E6"/>
<path d="M6 75.7499V24.75H37.5H52.5001H84.0001V75.7499H6Z" fill="#FBBB36"/>
<path d="M76.5001 47.25H69V39.7499H63.0001V47.25H55.5V53.2499H63.0001V60.75H69V53.2499H76.5001V47.25Z" fill="#E6E6E6"/>
<path d="M34.5001 47.25H13.5V53.2499H34.5001V47.25Z" fill="#E6E6E6"/>
<path d="M77.9999 24.75V18.7501H63V24.75" fill="#E6E6E6"/>
<path d="M75 18.7501V6.75H66V18.7501" fill="#E6E6E6"/>
<path d="M46.4999 6.75H43.5001L36 29.25H45L43.5001 42.75H46.4999L54 20.25H45L46.4999 6.75Z" fill="#FBBB36"/>
<path d="M26.9999 24.75V18.7501H12V24.75" fill="#E6E6E6"/>
<path d="M24 18.7501V6.75H15V18.7501" fill="#E6E6E6"/>
<path d="M88.5001 74.25H85.5V24.75C85.5 23.9221 84.828 23.2501 84.0001 23.2501H79.5001V18.7501C79.5001 17.9221 78.828 17.2501 78.0001 17.2501H76.5V6.75C76.5 5.92207 75.828 5.25005 75.0001 5.25005H66.0001C65.1721 5.25005 64.5001 5.92207 64.5001 6.75V17.2499H63C62.1721 17.2499 61.5001 17.9219 61.5001 18.7499V23.2499H54.582L55.4235 20.7239C55.6859 19.938 55.26 19.089 54.4739 18.8263C54.321 18.7754 54.1603 18.7499 53.9998 18.7499H46.6754L47.9909 6.91488C48.0825 6.09134 47.4884 5.35042 46.665 5.25884C46.611 5.25287 46.5555 5.24988 46.4999 5.24988H43.4999C42.8534 5.24988 42.2803 5.66244 42.0764 6.27591L36.4184 23.2499H28.4999V18.7499C28.4999 17.9219 27.8279 17.2499 27 17.2499H25.5001V6.75C25.5001 5.92207 24.828 5.25005 24.0001 5.25005H15.0001C14.1722 5.25005 13.5002 5.92207 13.5002 6.75V17.2499H12.0002C11.1723 17.2499 10.5003 17.9219 10.5003 18.7499V23.2499H6.00029C5.17236 23.2499 4.50035 23.9219 4.50035 24.7498V74.2498H1.49994C0.672012 74.2498 0 74.9218 0 75.7498V83.25C0 84.0779 0.672012 84.7499 1.49994 84.7499H88.4999C89.3278 84.7499 89.9998 84.0779 89.9998 83.25V75.7499C90 74.922 89.328 74.25 88.5001 74.25ZM67.5 8.24994H73.4999V11.25H70.4999V14.2501H73.4999V17.2501H67.5V8.24994ZM64.4999 20.25H76.5V23.2501H64.4999V20.25ZM44.5815 8.24994H44.8244L43.5088 20.0849C43.4173 20.9085 44.0114 21.6494 44.8348 21.741C44.8887 21.7469 44.9443 21.7499 44.9998 21.7499H51.9193L45.4184 41.2499H45.1754L46.491 29.4149C46.5826 28.5913 45.9884 27.8504 45.1651 27.7588C45.1111 27.7529 45.0555 27.7499 45 27.7499H38.0805L44.5815 8.24994ZM16.5001 14.2501H19.5001V11.25H16.5001V8.24994H22.5V17.2499H16.5001V14.2501ZM13.5 20.25H25.5001V23.2501H13.5V20.25ZM7.50006 71.2499H73.5001V68.2499H7.50006V26.2499H35.418L34.5765 28.7759C34.3141 29.5618 34.74 30.4109 35.5261 30.6735C35.679 30.7244 35.8395 30.7499 36.0002 30.7499H43.3246L42.0091 42.5849C41.9175 43.4085 42.5116 44.1494 43.335 44.241C43.389 44.2469 43.4445 44.2499 43.5001 44.2499H46.5001C47.1466 44.2499 47.7197 43.8374 47.9236 43.2239L53.5816 26.2499H82.5001V74.25H7.50006V71.2499ZM86.9999 81.7501H3.00006V77.2501H87.0001V81.7501H86.9999Z" fill="black"/>
<path d="M77.9998 53.25V47.25C77.9998 46.4221 77.3277 45.7501 76.4998 45.7501H70.4999V39.7501C70.4999 38.9222 69.8279 38.2502 68.9999 38.2502H62.9998C62.1719 38.2502 61.4999 38.9222 61.4999 39.7501V45.7501H55.4999C54.672 45.7501 54 46.4221 54 47.25V53.25C54 54.0779 54.672 54.7499 55.4999 54.7499H61.4999V60.75C61.4999 61.578 62.1719 62.25 62.9998 62.25H68.9998C69.8277 62.25 70.4997 61.578 70.4997 60.75V54.7501H76.4998C77.3277 54.7501 77.9998 54.0781 77.9998 53.25ZM74.9999 51.75H68.9999C68.172 51.75 67.5 52.422 67.5 53.25V59.2499H64.4999V53.25C64.4999 52.422 63.8279 51.75 63 51.75H57.0001V48.75H62.9998C63.8277 48.75 64.4998 48.0779 64.4998 47.25V41.2501H67.4998V47.25C67.4998 48.0779 68.1718 48.75 68.9998 48.75H74.9997V51.75H74.9999Z" fill="black"/>
<path d="M34.5 45.7501H13.4999C12.672 45.7501 12 46.4221 12 47.25V53.25C12 54.0779 12.672 54.7499 13.4999 54.7499H34.5C35.3279 54.7499 35.9999 54.0779 35.9999 53.25V47.25C35.9999 46.4221 35.3279 45.7501 34.5 45.7501ZM32.9999 51.75H14.9999V48.7499H32.9999V51.75Z" fill="black"/>
<path d="M79.5 68.2501H76.5V71.2501H79.5V68.2501Z" fill="black"/>
<path d="M13.5001 29.25H10.5V32.2501H13.5001V29.25Z" fill="black"/>
<path d="M19.5001 29.25H16.5V32.2501H19.5001V29.25Z" fill="black"/>
<path d="M73.5001 29.25H70.5V32.2501H73.5001V29.25Z" fill="black"/>
<path d="M79.5 29.25H76.5V32.2501H79.5V29.25Z" fill="black"/>
</svg>
