<svg width="90" height="90" viewBox="0 0 90 90" fill="none" xmlns="http://www.w3.org/2000/svg">
<path d="M51.0001 7.50006H39V19.5001H51.0001V7.50006Z" fill="#FBBB36"/>
<path d="M51.0001 70.5001H39V82.5001H51.0001V70.5001Z" fill="#FBBB36"/>
<path d="M51.0001 34.5001H39V55.5001H51.0001V34.5001Z" fill="#FBBB36"/>
<path d="M47.9999 19.4999H42V34.4999H47.9999V19.4999Z" fill="#E6E6E6"/>
<path d="M47.9999 55.4999H42V70.4999H47.9999V55.4999Z" fill="#E6E6E6"/>
<path d="M70.4999 73.4999H51V79.4999H70.4999V73.4999Z" fill="#E6E6E6"/>
<path d="M38.9999 73.4999H19.5V79.4999H38.9999V73.4999Z" fill="#E6E6E6"/>
<path d="M70.4999 10.4999H51V16.4999H70.4999V10.4999Z" fill="#E6E6E6"/>
<path d="M38.9999 10.4999H19.5V16.4999H38.9999V10.4999Z" fill="#E6E6E6"/>
<path d="M73.5001 1.49994C71.8426 1.49994 70.5 2.84238 70.5 4.5V22.5C70.5 24.1574 71.8424 25.5001 73.5001 25.5001H79.5V1.49994H73.5001Z" fill="#FBBB36"/>
<path d="M85.4999 1.49994H79.5V25.4999H85.4999C87.1574 25.4999 88.5 24.1574 88.5 22.4998V4.5C88.5 2.84256 87.1574 1.49994 85.4999 1.49994Z" fill="#FBBB36"/>
<path d="M73.5001 64.4999C71.8426 64.4999 70.5 65.8424 70.5 67.5V85.5C70.5 87.1574 71.8424 88.5001 73.5001 88.5001H79.5V64.4999H73.5001Z" fill="#FBBB36"/>
<path d="M85.4999 64.4999H79.5V88.4999H85.4999C87.1574 88.4999 88.5 87.1574 88.5 85.4998V67.5C88.5 65.8426 87.1574 64.4999 85.4999 64.4999Z" fill="#FBBB36"/>
<path d="M16.5001 1.49994C18.1576 1.49994 19.5002 2.84238 19.5002 4.5V22.5C19.5002 24.1574 18.1577 25.5001 16.5001 25.5001H10.5V1.49994H16.5001Z" fill="#FBBB36"/>
<path d="M4.50006 1.49994H10.5V25.4999H4.50006C2.84262 25.4999 1.5 24.1574 1.5 22.4998V4.5C1.5 2.84256 2.84262 1.49994 4.50006 1.49994Z" fill="#FBBB36"/>
<path d="M16.5001 64.4999C18.1576 64.4999 19.5002 65.8424 19.5002 67.5V85.5C19.5002 87.1574 18.1577 88.5001 16.5001 88.5001H10.5V64.4999H16.5001Z" fill="#FBBB36"/>
<path d="M4.50006 64.4999H10.5V88.4999H4.50006C2.84262 88.4999 1.5 87.1574 1.5 85.4998V67.5C1.5 65.8426 2.84262 64.4999 4.50006 64.4999Z" fill="#FBBB36"/>
<path d="M85.5 0H73.4999C71.0144 0 68.9999 2.01445 68.9999 4.5V9H52.4999V7.50006C52.4999 6.67213 51.8279 6.00012 50.9999 6.00012H38.9999C38.172 6.00012 37.4999 6.67213 37.4999 7.50006V9H20.9999V4.5C20.9999 2.01445 18.9854 0 16.4999 0H4.5C2.01445 0 0 2.01445 0 4.5V22.5C0 24.9855 2.01445 27 4.5 27H16.5001C18.9856 27 21.0001 24.9855 21.0001 22.5V18H37.5001V19.4999C37.5001 20.3279 38.1721 20.9999 39.0001 20.9999H40.5V32.9999H39.0001C38.1721 32.9999 37.5001 33.672 37.5001 34.4999V55.4999C37.5001 56.3279 38.1721 56.9999 39.0001 56.9999H40.5V68.9999H39.0001C38.1721 68.9999 37.5001 69.672 37.5001 70.4999V71.9998H21.0001V67.5C21.0001 65.0145 18.9856 63 16.5001 63H4.5C2.01445 63 0 65.0145 0 67.5V85.5C0 87.9855 2.01445 90 4.5 90H16.5001C18.9856 90 21.0001 87.9855 21.0001 85.5V81H37.5001V82.4999C37.5001 83.3279 38.1721 83.9999 39.0001 83.9999H51.0001C51.828 83.9999 52.5001 83.3279 52.5001 82.4999V81H69.0001V85.5C69.0001 87.9855 71.0146 90 73.5001 90H85.5C87.9855 90 90 87.9855 90 85.5V67.5C90 65.0145 87.9855 63 85.5 63H73.4999C71.0144 63 68.9999 65.0145 68.9999 67.5V72H52.4999V70.5001C52.4999 69.6721 51.8279 69.0001 50.9999 69.0001H49.5V57.0001H50.9999C51.8279 57.0001 52.4999 56.328 52.4999 55.5001V34.5001C52.4999 33.6721 51.8279 33.0001 50.9999 33.0001H49.5V21.0001H50.9999C51.8279 21.0001 52.4999 20.328 52.4999 19.5001V18H68.9999V22.5C68.9999 24.9855 71.0144 27 73.4999 27H85.5C87.9855 27 90 24.9855 90 22.5V4.5C90 2.01445 87.9855 0 85.5 0ZM4.5 23.9999C3.67207 23.9999 3.00006 23.3279 3.00006 22.5V21.0001H6.00012V18H3.00006V14.9999H6.00012V12.0001H3.00006V9H6.00012V5.99994H3.00006V4.5C3.00006 3.67207 3.67207 3.00006 4.5 3.00006H9V24.0001H4.5V23.9999ZM16.5001 23.9999H12.0001V3.00006H16.5001C17.328 3.00006 18 3.67207 18 4.5V5.99994H14.9999V9H18V12.0001H14.9999V15.0001H18V18H14.9999V21.0001H18V22.5C18 23.3279 17.328 23.9999 16.5001 23.9999ZM21.0001 14.9999V12.0001H37.5001V15.0001H21.0001V14.9999ZM4.5 86.9999C3.67207 86.9999 3.00006 86.3279 3.00006 85.5V84.0001H6.00012V81H3.00006V77.9999H6.00012V74.9999H3.00006V72H6.00012V68.9999H3.00006V67.5C3.00006 66.6721 3.67207 66.0001 4.5 66.0001H9V87.0001H4.5V86.9999ZM16.5001 86.9999H12.0001V66.0001H16.5001C17.328 66.0001 18 66.6721 18 67.5V68.9999H14.9999V72H18V75.0001H14.9999V78.0001H18V81H14.9999V84.0001H18V85.5C18 86.3279 17.328 86.9999 16.5001 86.9999ZM21.0001 77.9999V74.9999H37.5001V77.9999H21.0001ZM86.9999 67.5V68.9999H83.9999V72H86.9999V75.0001H83.9999V78.0001H86.9999V81H83.9999V84.0001H86.9999V85.5C86.9999 86.3279 86.3279 86.9999 85.5 86.9999H81V66.0001H85.5C86.3279 66.0001 86.9999 66.6721 86.9999 67.5ZM73.4999 66.0001H77.9999V87.0001H73.4999C72.672 87.0001 72 86.3281 72 85.5002V84.0002H75.0001V81H72V77.9999H75.0001V74.9999H72V72H75.0001V68.9999H72V67.5C72 66.6721 72.672 66.0001 73.4999 66.0001ZM68.9999 75.0001V78.0001H52.4999V75.0001H68.9999ZM49.5 81H40.5V72H49.5V81ZM46.4999 68.9999H43.4999V56.9999H46.4999V68.9999ZM49.5 54H40.5V50.9999H46.4999V47.9999H40.5V36H49.5V54ZM46.4999 32.9999H43.4999V20.9999H46.4999V32.9999ZM49.5 18H40.5V9H49.5V18ZM52.5001 14.9999V12.0001H69.0001V15.0001H52.5001V14.9999ZM73.4999 23.9999C72.672 23.9999 72 23.3279 72 22.5V21.0001H75.0001V18H72V14.9999H75.0001V12.0001H72V9H75.0001V5.99994H72V4.5C72 3.67207 72.672 3.00006 73.4999 3.00006H77.9999V24.0001H73.4999V23.9999ZM85.5 23.9999H81V3.00006H85.5C86.3279 3.00006 86.9999 3.67207 86.9999 4.5V5.99994H83.9999V9H86.9999V12.0001H83.9999V15.0001H86.9999V18H83.9999V21.0001H86.9999V22.5C86.9999 23.3279 86.3279 23.9999 85.5 23.9999Z" fill="black"/>
</svg>
