<svg width="30" height="32" viewBox="0 0 30 32" fill="none" xmlns="http://www.w3.org/2000/svg">
<path d="M24.053 5.95946C23.1585 6.01058 22.2612 5.9388 21.3863 5.74613C20.3309 5.38473 19.3438 4.84836 18.4663 4.15946C17.7156 3.62731 17.0028 3.04369 16.333 2.4128C16.049 2.14754 15.6749 2 15.2863 2C14.8977 2 14.5236 2.14754 14.2396 2.4128C13.5876 3.02374 12.9021 3.59796 12.1863 4.1328C11.3034 4.83075 10.3126 5.38018 9.25295 5.75946C8.25634 5.98465 7.23255 6.06547 6.21295 5.99946C5.37809 5.96489 4.54574 5.88477 3.71962 5.75946C3.51775 5.72954 3.31191 5.74057 3.1144 5.7919C2.91688 5.84323 2.73172 5.93381 2.56996 6.05824C2.40821 6.18267 2.27316 6.3384 2.17288 6.51614C2.0726 6.69389 2.00914 6.89 1.98629 7.0928C1.91962 7.7328 1.74629 9.39946 1.66629 11.2528C1.55417 13.1045 1.67061 14.9629 2.01295 16.7861C2.97834 19.8068 4.75388 22.5047 7.14629 24.5861C9.04787 26.3798 11.1098 27.9955 13.3063 29.4128C13.8949 29.817 14.5922 30.0333 15.3063 30.0333C16.0203 30.0333 16.7176 29.817 17.3063 29.4128C19.3863 27.9585 21.3318 26.3208 23.1196 24.5195C25.372 22.4228 27.04 19.776 27.9596 16.8395" stroke="#151515" stroke-width="2.5" stroke-linecap="round" stroke-linejoin="round"/>
<path d="M13.6665 14.6662L17.4798 18.4795C17.5036 18.5054 17.5324 18.526 17.5645 18.5402C17.5967 18.5543 17.6314 18.5616 17.6665 18.5616C17.7016 18.5616 17.7363 18.5543 17.7685 18.5402C17.8006 18.526 17.8294 18.5054 17.8532 18.4795L28.3332 7.99951" stroke="#6A983C" stroke-width="2.5" stroke-linecap="round" stroke-linejoin="round"/>
</svg>
