<svg width="90" height="90" viewBox="0 0 90 90" fill="none" xmlns="http://www.w3.org/2000/svg">
<g clip-path="url(#clip0)">
<path d="M33.0001 81H30C26.6865 81 24.0001 83.6865 24.0001 86.9999C17.3731 86.9999 12 81.627 12 74.9999C12 68.3729 17.3729 62.9998 24.0001 62.9998C24.0001 66.3133 26.6865 68.9998 30 68.9998H33.0001V81Z" fill="#FBBB36"/>
<path d="M61.5001 30.0001V1.49994H28.5V30.0001H34.5001V25.5001H55.5V30.0001H61.5001Z" fill="#E6E6E6"/>
<path d="M61.4999 7.50006H28.5V13.5H61.4999V7.50006Z" fill="#FBBB36"/>
<path d="M40.5001 25.5001H49.5L52.5001 61.5001L57.0001 63V85.5L52.5001 88.5001H37.5L33 85.5V63L37.5 61.5001L40.5001 25.5001Z" fill="#FBBB36"/>
<path d="M66 63C66 66.3135 63.3135 68.9999 60.0001 68.9999H44.9999C41.6865 68.9999 39 71.6864 39 74.9999C39 78.3134 41.6865 80.9998 44.9999 80.9998H59.9999C63.3134 80.9998 65.9998 83.6863 65.9998 86.9998C72.6268 86.9998 77.9999 81.6268 77.9999 74.9997C77.9999 68.3729 72.627 63 66 63Z" fill="#FBBB36"/>
<path d="M44.9999 68.9999C41.6865 68.9999 39 71.6864 39 74.9999C39 78.3134 41.6865 81 44.9999 81H50.9999V68.9999H44.9999Z" fill="#E6E6E6"/>
<path d="M32.5259 61.5779C31.9138 61.782 31.4999 62.3549 31.4999 63V67.5H29.9999C27.5144 67.5 25.4999 65.4855 25.4999 63C25.4999 62.1721 24.8279 61.5001 24 61.5001C16.5435 61.5001 10.5 67.5436 10.5 75.0001C10.5 82.4565 16.5435 88.5001 24 88.5001C24.8279 88.5001 25.4999 87.828 25.4999 87.0001C25.4999 84.5146 27.5144 82.5001 29.9999 82.5001H31.4999V85.5C31.4999 86.001 31.7504 86.4691 32.1673 86.748L36.6673 89.7481C36.9148 89.9116 37.2043 90.0002 37.4998 90.0002H52.4998C52.7952 90.0002 53.0848 89.9118 53.3323 89.7481L57.8323 86.748C58.2492 86.4691 58.4997 86.001 58.4997 85.5V82.4999H59.9996C62.4852 82.4999 64.4996 84.5144 64.4996 86.9999C64.4996 87.8279 65.1716 88.4999 65.9996 88.4999C73.456 88.4999 79.4996 82.4563 79.4996 74.9999C79.4996 67.5434 73.456 61.4999 65.9996 61.4999C65.1716 61.4999 64.4996 62.1719 64.4996 62.9998C64.4996 65.4854 62.4852 67.4998 59.9996 67.4998H58.4999V62.9998C58.4999 62.3549 58.0859 61.7818 57.4738 61.5778L53.9113 60.3898L51.1288 27H53.9999V30.0001C53.9999 30.828 54.6719 31.5 55.4998 31.5H61.4998C62.3277 31.5 62.9997 30.828 62.9997 30.0001V1.49994C62.9997 0.672012 62.3277 0 61.4998 0H28.4998C27.6719 0 26.9999 0.672012 26.9999 1.49994V29.9999C26.9999 30.8278 27.6719 31.4998 28.4998 31.4998H34.4998C35.3277 31.4998 35.9997 30.8278 35.9997 29.9999V27H38.8707L36.0883 60.39L32.5259 61.5779ZM29.9999 79.5001C26.469 79.5046 23.418 81.9661 22.6679 85.416C16.9155 84.684 12.846 79.4264 13.5779 73.674C14.1824 68.9265 17.9204 65.1869 22.6679 64.584C23.418 68.034 26.4688 70.4955 29.9999 70.4999H31.4999V79.4999H29.9999V79.5001ZM67.3318 64.584C73.0843 65.3159 77.1538 70.5735 76.4218 76.326C75.8173 81.0735 72.0793 84.813 67.3318 85.416C66.5818 81.9659 63.5309 79.5045 59.9998 79.5001H52.4998V70.5001H59.9998C63.5309 70.4955 66.5819 68.034 67.3318 64.584ZM44.9999 79.5001C42.5143 79.5001 40.4999 77.4856 40.4999 75.0001C40.4999 72.5145 42.5143 70.5001 44.9999 70.5001H49.4999V79.5001H44.9999ZM59.9998 12.0001H29.9999V9H60V12.0001H59.9998ZM59.9998 3.00006V6.00012H29.9999V3.00006H59.9998ZM34.4999 23.9999C33.672 23.9999 33 24.672 33 25.4999V28.4999H29.9999V14.9999H60V28.4999H56.9999V25.4999C56.9999 24.672 56.3279 23.9999 55.5 23.9999H34.4999ZM38.9999 61.6245L41.8799 27H48.12L51 61.6245C51.0496 62.2215 51.4516 62.7316 52.0201 62.922L55.5 64.0814V67.5H44.9999C40.8583 67.5 37.4998 70.8585 37.4998 75.0001C37.4998 79.1416 40.8583 82.5001 44.9999 82.5001H55.4998V84.6976L52.0498 87.0001H37.9498L34.4998 84.6976V64.0816L37.9737 62.9221C38.5454 62.7346 38.949 62.223 38.9999 61.6245Z" fill="black"/>
<path d="M48 59.9999H42V63H48V59.9999Z" fill="black"/>
<path d="M46.5001 36H43.5V57.0001H46.5001V36Z" fill="black"/>
<path d="M46.5001 73.4999H43.5V76.5H46.5001V73.4999Z" fill="black"/>
<path d="M46.5001 18H43.5V21.0001H46.5001V18Z" fill="black"/>
</g>
<defs>
<clipPath id="clip0">
<rect width="90" height="90" fill="white"/>
</clipPath>
</defs>
</svg>
