<svg width="90" height="90" viewBox="0 0 90 90" fill="none" xmlns="http://www.w3.org/2000/svg">
<path d="M7.49938 4.50366H55.4951C58.8084 4.50366 61.4945 7.18993 61.4945 10.503V25.5017C61.4945 28.8149 58.8082 31.501 55.4951 31.501H7.49938C4.1861 31.501 1.5 28.8148 1.5 25.5017V10.503C1.5 7.18835 4.18627 4.50366 7.49938 4.50366Z" fill="#FBBB36"/>
<path d="M1.5 25.5018C1.5 28.815 4.18627 31.5011 7.49938 31.5011H55.4951C58.8084 31.5011 61.4945 28.8149 61.4945 25.5018V24.0018H1.5V25.5018Z" fill="#FBBB36"/>
<path d="M7.49938 31.5012H55.4951C58.8084 31.5012 61.4945 34.1875 61.4945 37.5006V52.4992C61.4945 55.8125 58.8082 58.4986 55.4951 58.4986H7.49938C4.1861 58.4986 1.5 55.8123 1.5 52.4992V37.5006C1.5 34.1859 4.18627 31.5012 7.49938 31.5012Z" fill="#FBBB36"/>
<path d="M1.5 52.4992C1.5 55.8125 4.18627 58.4986 7.49938 58.4986H55.4951C58.8084 58.4986 61.4945 55.8123 61.4945 52.4992V50.9993H1.5V52.4992Z" fill="#FBBB36"/>
<path d="M7.49938 58.4988H55.4951C58.8084 58.4988 61.4945 61.185 61.4945 64.4982V79.4968C61.4945 82.8101 58.8082 85.4962 55.4951 85.4962H7.49938C4.1861 85.4962 1.5 82.8099 1.5 79.4968V64.4982C1.5 61.1835 4.18627 58.4988 7.49938 58.4988Z" fill="#FBBB36"/>
<path d="M1.5 79.497C1.5 82.8103 4.18627 85.4964 7.49938 85.4964H55.4951C58.8084 85.4964 61.4945 82.8101 61.4945 79.497V77.9971H1.5V79.497Z" fill="#FBBB36"/>
<path d="M62.9944 85.4919C77.0764 85.4919 88.4922 74.0762 88.4922 59.9941C88.4922 45.9121 77.0764 34.4963 62.9944 34.4963C48.9123 34.4963 37.4966 45.9121 37.4966 59.9941C37.4966 74.0762 48.9123 85.4919 62.9944 85.4919Z" fill="#E6E6E6"/>
<path d="M62.9943 79.4923C73.7629 79.4923 82.4926 70.7627 82.4926 59.9941C82.4926 49.2255 73.7629 40.4958 62.9943 40.4958C52.2258 40.4958 43.4961 49.2255 43.4961 59.9941C43.4961 70.7627 52.2258 79.4923 62.9943 79.4923Z" fill="black"/>
<path d="M62.9942 76.4927C72.1061 76.4927 79.4927 69.1061 79.4927 59.9942C79.4927 50.8823 72.1061 43.4956 62.9942 43.4956C53.8823 43.4956 46.4956 50.8823 46.4956 59.9942C46.4956 69.1061 53.8823 76.4927 62.9942 76.4927Z" fill="white"/>
<path d="M62.9943 64.4938C65.4793 64.4938 67.4939 62.4792 67.4939 59.9941C67.4939 57.5091 65.4793 55.4945 62.9943 55.4945C60.5092 55.4945 58.4946 57.5091 58.4946 59.9941C58.4946 62.4792 60.5092 64.4938 62.9943 64.4938Z" fill="black"/>
<path d="M53.9953 10.4985H50.9956V13.4982H53.9953V10.4985Z" fill="black"/>
<path d="M11.9992 49.4952H8.99951V52.4949H11.9992V49.4952Z" fill="black"/>
<path d="M29.9972 64.4938H26.9976V67.4935H29.9972V64.4938Z" fill="black"/>
<path d="M62.9943 33.001C62.495 33.001 62.0075 33.049 61.5139 33.0761C61.0729 32.4776 60.545 31.9467 59.9481 31.5013C61.8574 30.0973 62.9884 27.8716 62.9943 25.5019V10.5031C62.9898 6.36347 59.6347 3.00818 55.495 3.00378H7.49931C3.35969 3.00818 0.00457028 6.36347 0 10.5031V25.5017C0.00597653 27.8716 1.13695 30.0973 3.04627 31.5011C1.13695 32.9051 0.00597653 35.131 0 37.5007V52.4993C0.00597653 54.8692 1.13695 57.0949 3.04627 58.4987C1.13695 59.9026 0.00597653 62.1285 0 64.4982V79.4968C0.00457028 83.6365 3.35969 86.9918 7.49931 86.9962H55.495C56.3574 86.9842 57.2108 86.8221 58.0163 86.5163C72.6654 89.2715 86.7746 79.6289 89.53 64.9797C92.2851 50.3305 82.6425 36.2212 67.9934 33.466C66.3451 33.1555 64.6713 32.9996 62.9943 33.001ZM2.99969 25.5017H56.995V22.502H2.99969V13.5028H47.9957V10.5031H2.99969C2.99969 8.01774 5.01395 6.00347 7.49931 6.00347H55.495C57.9804 6.00347 59.9947 8.01774 59.9947 10.5031H56.995V13.5028H59.9947V25.5017C59.9947 27.9871 57.9804 30.0013 55.495 30.0013H7.49931C5.01413 30.0013 2.99969 27.9855 2.99969 25.5017ZM2.99969 52.4993H5.99938V49.4996H2.99969V37.5007C2.99969 35.0153 5.01395 33.001 7.49931 33.001H55.495C56.2224 33.0086 56.9364 33.1976 57.5724 33.5484C54.1482 34.2503 50.895 35.6166 47.9957 37.5666V37.5007H5.99938V40.5004H44.372C41.6977 43.0427 39.5709 46.1053 38.1222 49.4996H14.9986V52.4993H37.0782C36.6493 53.9706 36.3492 55.4765 36.1782 56.9989H7.49931C5.01413 56.9989 2.99969 54.9831 2.99969 52.4993ZM7.49931 59.9988H35.9968C36.0058 61.5077 36.1423 63.012 36.4032 64.4984H32.9969V67.4981H37.078C38.0274 70.7618 39.5859 73.8155 41.672 76.4973H2.99969V67.4981H23.9979V64.4984H2.99969C2.99969 62.013 5.01413 59.9988 7.49931 59.9988ZM7.49931 83.9965C5.01395 83.9965 2.99969 81.9822 2.99969 79.4968H44.372C46.2499 81.2907 48.3737 82.8056 50.682 83.9965H7.49931ZM76.2622 79.9785L74.7924 77.4288L72.1945 78.9287L73.6568 81.4621C70.7981 82.8885 67.6829 83.7238 64.4941 83.9204V80.9971H61.4944V83.9204C58.3072 83.7254 55.1904 82.8915 52.3317 81.4666L53.794 78.9333L51.1963 77.4334L49.7265 79.9831C47.0687 78.2101 44.7874 75.9289 43.0145 73.2712L45.5642 71.8014L44.0642 69.2037L41.5325 70.666C40.106 67.8057 39.2691 64.6889 39.0728 61.4989H41.996V58.4992H39.0728C39.2677 55.3119 40.1016 52.1952 41.5265 49.3365L44.0583 50.7988L45.5582 48.2011L43.0085 46.7312C44.7814 44.0734 47.0627 41.7922 49.7203 40.0192L51.1902 42.5689L53.7879 41.069L52.3255 38.5357C55.1858 37.1092 58.304 36.2723 61.4942 36.0774V39.0006H64.4939V36.0774C67.6812 36.2723 70.7979 37.1062 73.6566 38.5311L72.1943 41.0644L74.7922 42.5644L76.2621 40.0147C78.9199 41.7876 81.2011 44.0689 82.9739 46.7265L80.4242 48.1964L81.9241 50.7942L84.4559 49.3319C85.8823 52.1922 86.7192 55.309 86.9156 58.499H83.9923V61.4987H86.9156C86.7206 64.686 85.8867 67.8027 84.4619 70.6614L81.9301 69.1991L80.4302 71.797L82.9799 73.2668C81.2057 75.9243 78.923 78.2056 76.2622 79.9785Z" fill="black"/>
<path d="M62.9944 42.0002C53.0547 42.0002 44.9961 50.0591 44.9961 59.9986C44.9961 69.938 53.0549 77.9969 62.9944 77.9969C72.9339 77.9969 80.9927 69.938 80.9927 59.9986C80.9823 50.062 72.9295 42.0108 62.9944 42.0002ZM77.993 59.9987C77.99 62.1211 77.5356 64.2164 76.6566 66.1482L68.7523 61.5841C69.0748 60.5477 69.0748 59.4378 68.7523 58.4014L76.6566 53.8373C77.537 55.7721 77.9916 57.8718 77.993 59.9987ZM75.1433 51.2484L67.269 55.799C66.504 55.0296 65.5457 54.4806 64.4943 54.2122V45.0766C68.7674 45.5115 72.6476 47.7599 75.1508 51.2486H75.1433V51.2484ZM62.9944 62.9984C61.337 62.9984 59.9947 61.656 59.9947 59.9987C59.9947 58.3413 61.3371 56.999 62.9944 56.999C64.6518 56.999 65.9941 58.3415 65.9941 59.9987C65.9941 61.656 64.6518 62.9984 62.9944 62.9984ZM61.4946 45.0764V54.212C60.4433 54.4805 59.4848 55.0294 58.72 55.7988L50.8457 51.2482C53.3472 47.7597 57.2244 45.5129 61.4946 45.0764ZM47.9958 59.9987C47.9988 57.8764 48.4532 55.7811 49.3322 53.8492L57.2366 58.4134C56.914 59.4498 56.914 60.5596 57.2366 61.596L49.3322 66.1482C48.4532 64.2162 47.9988 62.1195 47.9958 59.9987ZM50.8455 68.7489L58.7198 64.1983C59.4848 64.9677 60.4431 65.5166 61.4945 65.7851V74.9207C57.2244 74.4828 53.3472 72.236 50.8455 68.7489ZM64.4943 74.9209V65.7852C65.5457 65.5168 66.5042 64.9679 67.269 64.1985L75.1508 68.7491C72.6476 72.2376 68.7674 74.4844 64.4943 74.9209Z" fill="black"/>
</svg>
