<svg width="20" height="20" viewBox="0 0 20 20" fill="none" xmlns="http://www.w3.org/2000/svg">
<path fill-rule="evenodd" clip-rule="evenodd" d="M9.09966 1.70947C9.16154 1.50369 9.28437 1.32395 9.4503 1.19637C9.61624 1.06879 9.81664 1 10.0224 1C10.2282 1 10.4286 1.06879 10.5945 1.19637C10.7604 1.32395 10.8833 1.50369 10.9451 1.70947L12.6114 7.08313H17.9866C18.1997 7.07468 18.4096 7.13963 18.5842 7.26805C18.7588 7.39647 18.8885 7.5813 18.9535 7.79431C19.0185 8.00731 19.0153 8.23678 18.9442 8.44764C18.8731 8.6585 18.7382 8.83917 18.56 8.96203L14.1971 12.2783L15.8634 17.6614C15.9293 17.8664 15.931 18.0882 15.8682 18.2943C15.8053 18.5004 15.6813 18.68 15.5142 18.807C15.3471 18.934 15.1457 19.0016 14.9394 19C14.7331 18.9984 14.5326 18.9276 14.3673 18.7981L9.99552 15.4442L5.63267 18.7699C5.46739 18.8994 5.26695 18.9702 5.06061 18.9718C4.85427 18.9734 4.65285 18.9058 4.48576 18.7788C4.31867 18.6519 4.19466 18.4722 4.13184 18.2661C4.06902 18.06 4.07068 17.8382 4.13658 17.6332L5.80288 12.2501L1.44003 8.93385C1.26183 8.81098 1.12688 8.63032 1.05581 8.41946C0.984745 8.20859 0.981458 7.97913 1.04646 7.76613C1.11146 7.55312 1.24117 7.36829 1.41577 7.23987C1.59037 7.11144 1.80027 7.0465 2.01338 7.05495H7.38856L9.09966 1.70947Z" stroke="#151515" stroke-linecap="round" stroke-linejoin="round"/>
</svg>
