<svg width="90" height="90" viewBox="0 0 90 90" fill="none" xmlns="http://www.w3.org/2000/svg">
<path d="M40.4999 46.5H7.49994C4.18646 46.5 1.5 49.1865 1.5 52.4999V64.5C1.5 67.8135 4.18646 70.5 7.49994 70.5H40.4999V46.5Z" fill="#FBBB36"/>
<path d="M13.4999 64.4999C16.8136 64.4999 19.4999 61.8136 19.4999 58.4999C19.4999 55.1863 16.8136 52.5 13.4999 52.5C10.1863 52.5 7.5 55.1863 7.5 58.4999C7.5 61.8136 10.1863 64.4999 13.4999 64.4999Z" fill="#FBBB36"/>
<path d="M40.4999 52.5H25.5V58.4999H40.4999V52.5Z" fill="#E6E6E6"/>
<path d="M40.4999 58.4999H25.5V64.4998H40.4999V58.4999Z" fill="#E6E6E6"/>
<path d="M88.5 5.99988H39V88.4998H88.5V5.99988Z" fill="#E6E6E6"/>
<path d="M79.5001 1.5H49.5V10.5H79.5001V1.5Z" fill="#FBBB36"/>
<path d="M54.0001 18H46.5V25.5001H54.0001V18Z" fill="#FBBB36"/>
<path d="M54.0001 36H46.5V43.5H54.0001V36Z" fill="#FBBB36"/>
<path d="M54.0001 54H46.5V61.5H54.0001V54Z" fill="#FBBB36"/>
<path d="M54.0001 72H46.5V79.5001H54.0001V72Z" fill="#FBBB36"/>
<path d="M39 46.5H21L25.5 19.5H39V46.5Z" fill="#E6E6E6"/>
<path d="M30 19.5L25.5 46.5H31.4999L35.9999 19.5H30Z" fill="#E6E6E6"/>
<path d="M21.0001 46.5H13.5L19.4999 12.0001H39.0001V19.5H25.5001L21.0001 46.5Z" fill="#FBBB36"/>
<path d="M9.00006 34.5001H1.5V40.5001H9.00006V34.5001Z" fill="#FBBB36"/>
<path d="M31.4999 70.5H7.5V88.5H31.4999V70.5Z" fill="#FBBB36"/>
<path d="M88.5001 4.5H81V1.49994C81 0.672012 80.328 0 79.5001 0H49.5C48.6721 0 48.0001 0.672012 48.0001 1.49994V4.5H39.0001C38.1721 4.5 37.5001 5.17201 37.5001 5.99994V10.4999H19.5001C18.7712 10.4999 18.1471 11.025 18.0227 11.7434L12.2384 45H10.4999V34.5001C10.4999 33.6721 9.82793 33.0001 9 33.0001H1.49994C0.672012 33.0001 0 33.6721 0 34.5001V40.5C0 41.3279 0.672012 41.9999 1.49994 41.9999H7.49988V45C3.36006 45.0046 0.00457031 48.3601 0 52.5001V64.5001C0.00457031 68.0627 2.51104 71.133 5.99994 71.8501V88.5001C5.99994 89.328 6.67195 90 7.49988 90H31.5C32.3279 90 32.9999 89.328 32.9999 88.5001V72H37.4999V88.5001C37.4999 89.328 38.172 90 38.9999 90H88.4999C89.3278 90 89.9998 89.328 89.9998 88.5001V5.99994C90 5.17201 89.328 4.5 88.5001 4.5ZM3.00006 36H7.50006V39.0001H3.00006V36ZM20.7615 13.5H37.4999V18H25.4999C24.7679 18 24.1423 18.5295 24.0209 19.2524L19.7295 45H15.2835L20.7615 13.5ZM37.4999 21.0001V45H22.77L26.7704 21.0001H37.4999ZM30.0001 86.9999H9V72H12.0001V77.9999H15.0001V72H18V77.9999H21.0001V72H24.0001V77.9999H27V72H30.0001V86.9999ZM7.50006 68.9999C5.01451 68.9999 3.00006 66.9855 3.00006 64.4999V52.4999C3.00006 50.0143 5.01451 47.9999 7.50006 47.9999H37.5001V50.9999H25.5001C24.6721 50.9999 24.0001 51.672 24.0001 52.4999V64.4999C24.0001 65.3279 24.6721 65.9999 25.5001 65.9999H37.5001V68.9999H7.50006ZM27 59.9999H37.4999V63H27V59.9999ZM27 57.0001V54H37.4999V57.0001H27ZM50.9999 3.00006H77.9999V9H50.9999V3.00006ZM86.9999 86.9999H40.5V7.50006H48.0001V10.5001C48.0001 11.328 48.6721 12.0001 49.5 12.0001H79.5001C80.328 12.0001 81 11.328 81 10.5001V7.50006H86.9999V86.9999Z" fill="black"/>
<path d="M13.5001 50.9999C9.35848 50.9999 6 54.3584 6 58.4999C6 62.6415 9.35848 66 13.5001 66C17.6416 66 21.0001 62.6415 21.0001 58.4999C20.9955 54.3599 17.6401 51.0044 13.5001 50.9999ZM13.5001 62.9999C11.0145 62.9999 9.00006 60.9855 9.00006 58.4999C9.00006 56.0144 11.0145 53.9999 13.5001 53.9999C15.9856 53.9999 18.0001 56.0144 18.0001 58.4999C18.0001 60.9855 15.9856 62.9999 13.5001 62.9999Z" fill="black"/>
<path d="M27.0001 81H24V84.0001H27.0001V81Z" fill="black"/>
<path d="M21.0001 81H18V84.0001H21.0001V81Z" fill="black"/>
<path d="M15.0001 81H12V84.0001H15.0001V81Z" fill="black"/>
<path d="M54 16.5001H46.4999C45.672 16.5001 45 17.1721 45 18.0001V25.5001C45 26.3281 45.672 27.0001 46.4999 27.0001H54C54.8279 27.0001 55.4999 26.3281 55.4999 25.5001V18.0001C55.4999 17.1721 54.8279 16.5001 54 16.5001ZM52.5001 24H48.0001V19.5H52.5001V24Z" fill="black"/>
<path d="M82.5 16.5001H60V19.5002H82.5V16.5001Z" fill="black"/>
<path d="M76.5001 22.5H60V25.5001H76.5001V22.5Z" fill="black"/>
<path d="M54 34.5001H46.4999C45.672 34.5001 45 35.1721 45 36.0001V43.5001C45 44.328 45.672 45.0001 46.4999 45.0001H54C54.8279 45.0001 55.4999 44.328 55.4999 43.5001V36.0001C55.4999 35.1721 54.8279 34.5001 54 34.5001ZM52.5001 42H48.0001V37.5H52.5001V42Z" fill="black"/>
<path d="M82.5 34.5001H60V37.5002H82.5V34.5001Z" fill="black"/>
<path d="M76.5001 40.5H60V43.5001H76.5001V40.5Z" fill="black"/>
<path d="M54 52.5H46.4999C45.672 52.5 45 53.172 45 53.9999V61.5C45 62.3279 45.672 62.9999 46.4999 62.9999H54C54.8279 62.9999 55.4999 62.3279 55.4999 61.5V53.9999C55.4999 53.172 54.8279 52.5 54 52.5ZM52.5001 59.9999H48.0001V55.4999H52.5001V59.9999Z" fill="black"/>
<path d="M82.5 52.5H60V55.5001H82.5V52.5Z" fill="black"/>
<path d="M76.5001 58.5H60V61.5001H76.5001V58.5Z" fill="black"/>
<path d="M54 70.5H46.4999C45.672 70.5 45 71.172 45 71.9999V79.5C45 80.3279 45.672 80.9999 46.4999 80.9999H54C54.8279 80.9999 55.4999 80.3279 55.4999 79.5V71.9999C55.4999 71.172 54.8279 70.5 54 70.5ZM52.5001 77.9999H48.0001V73.4999H52.5001V77.9999Z" fill="black"/>
<path d="M82.5 70.5H60V73.5001H82.5V70.5Z" fill="black"/>
<path d="M76.5001 76.5H60V79.5001H76.5001V76.5Z" fill="black"/>
</svg>
