<svg width="90" height="90" viewBox="0 0 90 90" fill="none" xmlns="http://www.w3.org/2000/svg">
<g clip-path="url(#clip0)">
<path d="M47.9999 13.5H7.49994C4.18646 13.5 1.5 16.1865 1.5 19.4999V82.4999C1.5 85.8134 4.18646 88.4999 7.49994 88.4999H70.4999C73.8134 88.4999 76.4999 85.8134 76.4999 82.4999V41.9999L47.9999 13.5ZM43.4999 46.4999V23.9999L65.9999 46.4999H43.4999Z" fill="#E6E6E6"/>
<path d="M39.0001 1.5H9V13.5001H39.0001V1.5Z" fill="#FBBB36"/>
<path d="M43.5 55.5H88.5V66.0001L70.5 72.0001L67.4999 88.5001H61.5L58.4999 72.0001L43.5 66.0001V55.5Z" fill="#FBBB36"/>
<path d="M28.5 58.9096C28.3845 63.7666 24.357 67.6111 19.5 67.5C14.643 67.6109 10.6155 63.7666 10.5 58.9096C10.5 48.0001 19.5 36 19.5 36C19.5 36 28.5 48.0001 28.5 58.9096Z" fill="#FBBB36"/>
<path d="M61.4989 42.0004L68.9976 34.5017L55.4978 21.0019L47.9991 28.5006L61.4989 42.0004Z" fill="#FBBB36"/>
<path d="M18.3001 35.1C17.9205 35.6055 9 47.6295 9 58.9095C9.12146 64.5915 13.818 69.105 19.4999 69.0001C25.1819 69.105 29.8784 64.5917 29.9999 58.9095C29.9999 47.6295 21.0793 35.6055 20.6998 35.1C20.1538 34.4369 19.1758 34.3425 18.5128 34.8869C18.4351 34.9514 18.3646 35.0219 18.3001 35.1ZM19.4999 66C15.474 66.105 12.1215 62.9355 11.9999 58.9095C11.9999 51.0001 17.1149 42.279 19.4999 38.6416C21.8879 42.2746 27 50.9822 27 58.9095C26.8785 62.9355 23.526 66.105 19.4999 66Z" fill="black"/>
<path d="M26.9999 72H12V75.0001H26.9999V72Z" fill="black"/>
<path d="M30.0001 77.9999H9V80.9999H30.0001V77.9999Z" fill="black"/>
<path d="M88.5001 54H78.0001V41.9999C78.0001 41.6025 77.8426 41.22 77.5607 40.9395L49.0605 12.4395C48.78 12.1576 48.3975 12.0001 48.0001 12.0001H40.5V1.49994C40.5 0.672012 39.828 0 39.0001 0H9C8.17207 0 7.50006 0.672012 7.50006 1.49994V11.9999C3.36006 12.0045 0.00457031 15.3599 0 19.4999V82.4999C0.00457031 86.6399 3.36006 89.9954 7.50006 90H70.5001C74.6401 89.9954 77.9956 86.6399 78.0001 82.4999V71.0805L88.9741 67.4235C89.5876 67.2195 90.0002 66.6466 90.0002 66.0001V55.5001C90 54.672 89.328 54 88.5001 54ZM54.621 32.9999L60.0001 27.6209L62.3791 29.9999L57.0001 35.379L54.621 32.9999ZM52.5001 30.879L50.121 28.4999L55.5001 23.1209L57.8791 25.4999L52.5001 30.879ZM62.379 45H45V27.621L62.379 45ZM59.121 37.4999L64.5001 32.1209L66.8791 34.4999L61.5002 39.879L59.121 37.4999ZM10.4999 3.00006H13.5V9H16.5001V3.00006H19.5001V9H22.5V3.00006H25.5001V9H28.5001V3.00006H31.5V9H34.5001V3.00006H37.5001V12.0001H10.5001V3.00006H10.4999ZM3.00006 82.4999V22.5H30.0001V19.4999H3.00006C3.00006 17.0144 5.01451 14.9999 7.50006 14.9999H47.379L53.379 20.9999L47.9999 26.379L44.5605 22.9395C43.974 22.3545 43.0246 22.3545 42.4396 22.9395C42.1576 23.2214 42.0001 23.6025 42.0001 23.9999V46.4999C42.0001 47.3279 42.6721 47.9999 43.5001 47.9999H66.0001C66.828 47.9999 67.5 47.3279 67.5 46.4999C67.5 46.1025 67.3425 45.7214 67.0605 45.4395L63.621 41.9999L69.0001 36.6209L75.0001 42.6208V54H43.5001C42.6721 54 42.0001 54.672 42.0001 55.4999V65.9999C42.0001 66.6134 42.3721 67.1653 42.9421 67.3933L57.1727 73.0842L59.7002 86.9998H7.50006C5.01451 86.9999 3.00006 84.9855 3.00006 82.4999ZM75.0001 82.4999C75.0001 84.9855 72.9856 86.9999 70.5001 86.9999H69.3L71.82 73.1415L75.0001 72.081V82.4999ZM86.9999 64.9185L70.026 70.5765C69.5055 70.749 69.1214 71.193 69.024 71.7316L66.249 87.0001H62.7509L59.9759 71.7316C59.8843 71.223 59.5364 70.7985 59.0579 70.6066L45 64.9846V63H77.9999V59.9999H45V56.9999H86.9999V64.9185Z" fill="black"/>
<path d="M84.0001 60H81V63.0001H84.0001V60Z" fill="black"/>
<path d="M36.0001 19.5H33V22.5001H36.0001V19.5Z" fill="black"/>
</g>
<defs>
<clipPath id="clip0">
<rect width="90" height="90" fill="white"/>
</clipPath>
</defs>
</svg>
