<svg width="90" height="90" viewBox="0 0 90 90" fill="none" xmlns="http://www.w3.org/2000/svg">
<g clip-path="url(#clip0)">
<path d="M46.5398 86.8888C69.6726 86.8888 88.4254 68.136 88.4254 45.0033C88.4254 21.8705 69.6726 3.11774 46.5398 3.11774C23.4071 3.11774 4.6543 21.8705 4.6543 45.0033C4.6543 68.136 23.4071 86.8888 46.5398 86.8888Z" fill="#E6E6E6"/>
<path d="M17.0664 45.0001C17.0555 38.1649 19.4307 31.5409 23.7821 26.2695C24.8153 25.0393 24.7439 23.2258 23.6161 22.0809L17.0137 15.4785C15.8006 14.2622 13.8304 14.2606 12.6158 15.4739C12.5646 15.5251 12.5134 15.5794 12.4653 15.6337C-2.08608 32.5135 -2.08608 57.5022 12.4653 74.382C13.5931 75.6773 15.5571 75.8139 16.8539 74.6877C16.9098 74.6395 16.9625 74.5899 17.0137 74.5372L23.6161 67.9348C24.7439 66.7899 24.8153 64.9763 23.7821 63.7462C19.4275 58.4702 17.0524 51.8398 17.0664 45.0001Z" fill="#FBBB36"/>
<path d="M46.5402 68.2729C59.3917 68.2729 69.8099 57.8547 69.8099 45.0032C69.8099 32.1517 59.3917 21.7335 46.5402 21.7335C33.6887 21.7335 23.2705 32.1517 23.2705 45.0032C23.2705 57.8547 33.6887 68.2729 46.5402 68.2729Z" fill="#FBBB36"/>
<path d="M46.5396 34.1439C48.2531 34.1439 49.6422 32.7548 49.6422 31.0413C49.6422 29.3278 48.2531 27.9387 46.5396 27.9387C44.8261 27.9387 43.437 29.3278 43.437 31.0413C43.437 32.7548 44.8261 34.1439 46.5396 34.1439Z" fill="white"/>
<path d="M46.5396 62.0677C48.2531 62.0677 49.6422 60.6786 49.6422 58.9651C49.6422 57.2516 48.2531 55.8625 46.5396 55.8625C44.8261 55.8625 43.437 57.2516 43.437 58.9651C43.437 60.6786 44.8261 62.0677 46.5396 62.0677Z" fill="white"/>
<path d="M32.5777 48.1058C34.2912 48.1058 35.6803 46.7168 35.6803 45.0033C35.6803 43.2898 34.2912 41.9007 32.5777 41.9007C30.8642 41.9007 29.4751 43.2898 29.4751 45.0033C29.4751 46.7168 30.8642 48.1058 32.5777 48.1058Z" fill="white"/>
<path d="M60.5015 48.1058C62.215 48.1058 63.6041 46.7168 63.6041 45.0033C63.6041 43.2898 62.215 41.9007 60.5015 41.9007C58.788 41.9007 57.3989 43.2898 57.3989 45.0033C57.3989 46.7168 58.788 48.1058 60.5015 48.1058Z" fill="white"/>
<path d="M46.5396 49.6571C49.1099 49.6571 51.1935 47.5735 51.1935 45.0032C51.1935 42.433 49.1099 40.3494 46.5396 40.3494C43.9693 40.3494 41.8857 42.433 41.8857 45.0032C41.8857 47.5735 43.9693 49.6571 46.5396 49.6571Z" fill="white"/>
<path d="M46.5412 69.8211C60.2503 69.8211 71.3622 58.7089 71.3622 45.0001C71.3622 31.2912 60.2501 20.1791 46.5412 20.1791C32.8324 20.1791 21.7202 31.2912 21.7202 45.0001C21.7371 58.7014 32.8399 69.804 46.5412 69.8211ZM46.5412 23.2817C58.536 23.2817 68.2597 33.0053 68.2597 45.0001C68.2597 56.9949 58.536 66.7185 46.5412 66.7185C34.5465 66.7185 24.8228 56.9949 24.8228 45.0001C24.8351 33.0099 34.5526 23.2941 46.5412 23.2817Z" fill="black"/>
<path d="M60.5035 49.6541C63.074 49.6541 65.1573 47.5707 65.1573 45.0002C65.1573 42.4298 63.074 40.3464 60.5035 40.3464C57.933 40.3464 55.8496 42.4298 55.8496 45.0002C55.8494 47.5705 57.933 49.6541 60.5035 49.6541ZM60.5035 43.4488C61.3597 43.4488 62.0548 44.1438 62.0548 45.0001C62.0548 45.8563 61.3597 46.5514 60.5035 46.5514C59.6472 46.5514 58.9522 45.8563 58.9522 45.0001C58.9522 44.1438 59.6471 43.4488 60.5035 43.4488Z" fill="black"/>
<path d="M32.5797 49.6541C35.1501 49.6541 37.2335 47.5707 37.2335 45.0002C37.2335 42.4298 35.1501 40.3464 32.5797 40.3464C30.0092 40.3464 27.9258 42.4298 27.9258 45.0002C27.9258 47.5705 30.0092 49.6541 32.5797 49.6541ZM32.5797 43.4488C33.4359 43.4488 34.1309 44.1438 34.1309 45.0001C34.1309 45.8563 33.4359 46.5514 32.5797 46.5514C31.7234 46.5514 31.0284 45.8563 31.0284 45.0001C31.0284 44.1438 31.7234 43.4488 32.5797 43.4488Z" fill="black"/>
<path d="M46.5416 54.308C43.9711 54.308 41.8877 56.3914 41.8877 58.9619C41.8877 61.5323 43.9711 63.6157 46.5416 63.6157C49.1121 63.6157 51.1954 61.5323 51.1954 58.9619C51.1954 56.3914 49.1121 54.308 46.5416 54.308ZM46.5416 60.5133C45.6853 60.5133 44.9903 59.8183 44.9903 58.962C44.9903 58.1058 45.6853 57.4107 46.5416 57.4107C47.3978 57.4107 48.0929 58.1058 48.0929 58.962C48.0929 59.8183 47.3978 60.5133 46.5416 60.5133Z" fill="black"/>
<path d="M46.5416 35.6922C49.1121 35.6922 51.1954 33.6088 51.1954 31.0383C51.1954 28.4678 49.1121 26.3845 46.5416 26.3845C43.9711 26.3845 41.8877 28.4678 41.8877 31.0383C41.8875 33.6088 43.9709 35.6922 46.5416 35.6922ZM46.5416 29.487C47.3978 29.487 48.0929 30.1821 48.0929 31.0383C48.0929 31.8946 47.3978 32.5896 46.5416 32.5896C45.6853 32.5896 44.9903 31.8946 44.9903 31.0383C44.9901 30.1819 45.6852 29.487 46.5416 29.487Z" fill="black"/>
<path d="M14.6339 76.9897H14.8046C15.4669 76.9852 16.1217 76.8409 16.7236 76.5647C34.1557 93.0444 61.6483 92.2732 78.1278 74.8395C94.6074 57.4058 93.8364 29.9149 76.4027 13.4353C68.3326 5.80614 57.6457 1.55709 46.5399 1.56325C35.4432 1.5353 24.7624 5.7875 16.7189 13.4355C14.8496 12.5668 12.6312 13.0477 11.2893 14.6129C-3.76309 32.0745 -3.76309 57.9241 11.2893 75.3857C12.1332 76.3599 13.3447 76.9417 14.6339 76.9897ZM86.8757 45.0001C86.8711 67.2754 68.8074 85.3296 46.5321 85.325C36.3773 85.3219 26.5962 81.4886 19.1436 74.5915L24.7128 69.0223C26.4146 67.3142 26.5309 64.5903 24.9796 62.7442C16.497 52.4357 16.497 37.5648 24.9796 27.2563C26.5294 25.4102 26.413 22.6861 24.7112 20.9782L19.142 15.409C35.4898 0.277389 61.009 1.26107 76.1406 17.6088C83.0408 25.061 86.8741 34.8437 86.8757 45.0001ZM10.8611 20.2814L13.6411 23.0614L15.8254 20.8678L12.7397 17.7823C13.0499 17.4038 13.3213 17.0065 13.6395 16.639C13.9188 16.3148 14.3205 16.1239 14.7471 16.1115H14.8076C15.2249 16.1115 15.6236 16.279 15.9152 16.5769L22.5176 23.1794C23.0808 23.761 23.1102 24.6763 22.5842 25.2923C13.1584 36.7456 13.1584 53.2704 22.5842 64.7237C23.1118 65.3397 23.0822 66.2548 22.519 66.8366L15.9166 73.4391C15.6095 73.7509 15.1859 73.92 14.7485 73.9045C14.3203 73.8921 13.9186 73.6998 13.6393 73.3756C13.3213 73.0079 13.0452 72.6124 12.7411 72.2355L15.8266 69.1484L13.633 66.9548L10.853 69.7207C0.521111 54.8607 0.521111 35.1418 10.853 20.2817L10.8611 20.2814Z" fill="black"/>
<path d="M67.3897 26.348L69.583 24.1531L67.3881 21.9598L65.1947 24.1547L67.3897 26.348Z" fill="black"/>
<path d="M73.9658 24.1581L76.1597 21.9642L73.9658 19.7704L71.772 21.9642L73.9658 24.1581Z" fill="black"/>
<path d="M67.3832 68.0227L69.5781 65.8294L67.3848 63.6345L65.1899 65.8279L67.3832 68.0227Z" fill="black"/>
<path d="M69.5781 74.6194L71.772 72.4256L69.5781 70.2318L67.3843 72.4256L69.5781 74.6194Z" fill="black"/>
<path d="M77.566 43.452H74.4634V46.5545H77.566V43.452Z" fill="black"/>
<path d="M83.7715 46.5546H80.6689V49.6571H83.7715V46.5546Z" fill="black"/>
<path d="M48.0914 13.9769H44.9888V17.0795H48.0914V13.9769Z" fill="black"/>
<path d="M48.0914 72.9269H44.9888V76.0295H48.0914V72.9269Z" fill="black"/>
<path d="M51.1939 7.77161H48.0913V10.8742H51.1939V7.77161Z" fill="black"/>
<path d="M44.9883 79.1322H41.8857V82.2348H44.9883V79.1322Z" fill="black"/>
<path d="M46.5413 51.2054C49.9682 51.2054 52.7466 48.427 52.7466 45.0001C52.7466 41.5732 49.9682 38.7947 46.5413 38.7947C43.1144 38.7947 40.3359 41.5732 40.3359 45.0001C40.3359 48.427 43.1144 51.2054 46.5413 51.2054ZM46.5413 41.8975C48.2555 41.8975 49.6439 43.286 49.6439 45.0001C49.6439 46.7143 48.2555 48.1026 46.5413 48.1026C44.827 48.1026 43.4387 46.7141 43.4387 45.0001C43.4385 43.2858 44.8286 41.8975 46.5413 41.8975Z" fill="black"/>
<path d="M15.0807 61.7388C9.45405 51.2891 9.45405 38.7109 15.0807 28.2613L12.3441 26.7968C6.23035 38.1618 6.23035 51.8383 12.3441 63.2032L15.0807 61.7388Z" fill="#004559"/>
<path d="M18.021 27.4486L20.2148 25.2548L18.021 23.0609L15.8272 25.2548L18.021 27.4486Z" fill="#004559"/>
<path d="M18.02 66.9392L20.2139 64.7454L18.02 62.5515L15.8262 64.7454L18.02 66.9392Z" fill="#004559"/>
</g>
<defs>
<clipPath id="clip0">
<rect width="90" height="90" fill="white"/>
</clipPath>
</defs>
</svg>
