<svg width="90" height="90" viewBox="0 0 90 90" fill="none" xmlns="http://www.w3.org/2000/svg">
<g clip-path="url(#clip0)">
<path d="M86.9998 79.5H23.2499C21.1784 79.5 19.5 77.8215 19.5 75.7501C19.5 73.6785 21.1785 72.0002 23.2499 72.0002H25.4999V58.5002H42L49.4999 37.4999H86.9998" fill="#FBBB36"/>
<path d="M23.2499 72H49.4999V79.5001H23.2499C21.1784 79.5001 19.5 77.8215 19.5 75.7501C19.4998 73.6785 21.1784 72 23.2499 72Z" fill="#FBBB36"/>
<path d="M52.5 88.5001C57.4706 88.5001 61.5 84.4706 61.5 79.5001C61.5 74.5295 57.4706 70.5001 52.5 70.5001C47.5294 70.5001 43.5 74.5295 43.5 79.5001C43.5 84.4706 47.5294 88.5001 52.5 88.5001Z" fill="#E6E6E6"/>
<path d="M31.4999 58.5H25.5V64.5H31.4999V58.5Z" fill="#E6E6E6"/>
<path d="M52.5001 82.5001C54.1569 82.5001 55.5001 81.1569 55.5001 79.5001C55.5001 77.8432 54.1569 76.5 52.5001 76.5C50.8432 76.5 49.5 77.8432 49.5 79.5001C49.5 81.1569 50.8432 82.5001 52.5001 82.5001Z" fill="#E6E6E6"/>
<path d="M86.9999 43.5001H54L49.5 58.5H86.9999V43.5001Z" fill="#E6E6E6"/>
<path d="M88.5 1.49994H1.5V16.4999H88.5V1.49994Z" fill="#FBBB36"/>
<path d="M12.0001 90H4.5V16.5001H85.5V37.4999H77.9999V23.9999H12.0001V90Z" fill="#FBBB36"/>
<path d="M78.0001 23.9999H12V29.9999H78.0001V23.9999Z" fill="#E6E6E6"/>
<path d="M88.5001 0H1.49994C0.672012 0 0 0.672012 0 1.49994V16.4999C0 17.3278 0.672012 17.9998 1.49994 17.9998H2.99988V90H5.99994V18H83.9999V36H79.4999V23.9999C79.4999 23.172 78.8279 22.5 77.9999 22.5H12.0001C11.1721 22.5 10.5001 23.172 10.5001 23.9999V90H13.5V31.5H76.5V36H49.5C48.867 36 48.3015 36.399 48.0885 36.996L40.95 57.0001H25.5001C24.6721 57.0001 24.0001 57.6721 24.0001 58.5V70.5001H23.2501C20.3505 70.5001 18 72.8506 18 75.7501C18 78.6496 20.3505 81.0002 23.2501 81.0002H42.12C42.9435 86.7331 48.2579 90.7126 53.991 89.8893C58.599 89.2278 62.2185 85.6083 62.8801 81.0002H87.0001V78.0001H62.8799C62.0564 72.2672 56.742 68.2877 51.0089 69.111C46.401 69.7725 42.7815 73.392 42.1198 78.0001H23.2501C22.008 78.0001 21.0001 76.9922 21.0001 75.7501C21.0001 74.508 22.008 73.5001 23.2501 73.5001H34.5001V70.5001H27V66.0001H31.5C32.3279 66.0001 32.9999 65.328 32.9999 64.5001V60.0001H41.9999C42.6329 60.0001 43.1984 59.6011 43.4115 59.0041L50.5575 39.0001H85.5C86.3279 39.0001 86.9999 38.328 86.9999 37.5001V18H88.4999C89.3278 18 89.9998 17.328 89.9998 16.5001V1.49994C90 0.672012 89.328 0 88.5001 0ZM13.5 28.4999V25.4999H76.5V28.4999H13.5ZM52.5001 72C56.6416 72 60.0001 75.3585 60.0001 79.5001C60.0001 83.6416 56.6416 87.0001 52.5001 87.0001C48.3585 87.0001 45 83.6415 45 79.5001C45.0046 75.3601 48.3601 72.0046 52.5001 72ZM30.0001 63H27V59.9999H30.0001V63ZM86.9999 14.9999H3.00006V12.0001H76.5V9H3.00006V3.00006H87.0001V14.9999H86.9999Z" fill="black"/>
<path d="M52.5 84.0001C54.9855 84.0001 57 81.9856 57 79.5001C57 77.0145 54.9855 75.0001 52.5 75.0001C50.0145 75.0001 48 77.0145 48 79.5001C48 81.9856 50.0145 84.0001 52.5 84.0001ZM52.5 77.9999C53.3279 77.9999 53.9999 78.672 53.9999 79.4999C53.9999 80.3278 53.3279 80.9998 52.5 80.9998C51.6721 80.9998 51.0001 80.3278 51.0001 79.4999C51.0001 78.672 51.6719 77.9999 52.5 77.9999Z" fill="black"/>
<path d="M86.9997 57.0001H61.4999V45H86.9999V41.9999H53.9998C53.3368 41.9999 52.7533 42.435 52.5628 43.0694L48.0628 58.0693C47.8243 58.8628 48.2758 59.6983 49.0693 59.9368C49.2089 59.9789 49.3543 59.9998 49.4998 59.9998H86.9997V57.0001ZM55.1158 45H58.4998V57.0001H51.5158L55.1158 45Z" fill="black"/>
<path d="M67.5 63H61.5V66.0001H67.5V63Z" fill="black"/>
<path d="M82.5001 9H79.5V12.0001H82.5001V9Z" fill="black"/>
<path d="M40.5001 70.5001H37.5V73.5001H40.5001V70.5001Z" fill="black"/>
<path d="M19.5001 34.5001H16.5V37.5001H19.5001V34.5001Z" fill="black"/>
<path d="M25.5001 34.5001H22.5V37.5001H25.5001V34.5001Z" fill="black"/>
<path d="M31.5001 34.5001H28.5V37.5001H31.5001V34.5001Z" fill="black"/>
</g>
<defs>
<clipPath id="clip0">
<rect width="90" height="90" fill="white"/>
</clipPath>
</defs>
</svg>
